# xmcd
#
# Track frame offsets: 
#        150
#        17012
#        33305
#        49022
#        67003
#        80907
#        105255
#        124337
#        139590
#        157760
#        172977
#        197603
#        211705
#        229240
#        244558
#        260157
#        275522
#        293877
#        310457
#        326183
#
# Disc length: 4518 seconds
#
# Revision: 3
# Processed by: cddbd v1.5.2PL0 Copyright (c) Steve Scherf et al.
# Submitted via: ExactAudioCopyFreeDBPlugin 1.0
#
DISCID=1f11a414
DTITLE=Various Artist - Hitzone 51
DYEAR=2009
DGENRE=Top 40
TTITLE0=Diggy Dex and Eva de Roovere - Slaap Lekker
TTITLE1=Peter Fox - Haus Am See
TTITLE2=Cascada - Evacuate The Dancefloor
TTITLE3=Pitbull - Hotel Room Service
TTITLE4=Nick and Simon - Lippen Op De Mijne
TTITLE5=U2 - Magnificent
TTITLE6=Flo Rida ft. Wynter - Sugar
TTITLE7=Agnes - Release Me
TTITLE8=Jordin Sparks - Battlefield
TTITLE9=Lily Allen - Not Fair
TTITLE10=Keri Hilson ft. Kanye West and Ne-Yo - Knock You Down
TTITLE11=Jason Mraz - Make It Mine
TTITLE12=Caro Emerald - Back It Up
TTITLE13=Bob Sinclar ft. Shabba Ranks - Love You No More
TTITLE14=La Roux - Bulletproof
TTITLE15=Sono - Keep Control
TTITLE16=Gossip - Heavy Cross
TTITLE17=Flinke Namen - Als Zij Langsloopt
TTITLE18=Kristinia Debarge - Goodbye
TTITLE19=Michel Cleis ft. Toto La Momposina - La Mezcla
EXTD=
EXTT0=
EXTT1=
EXTT2=
EXTT3=
EXTT4=
EXTT5=
EXTT6=
EXTT7=
EXTT8=
EXTT9=
EXTT10=
EXTT11=
EXTT12=
EXTT13=
EXTT14=
EXTT15=
EXTT16=
EXTT17=
EXTT18=
EXTT19=
PLAYORDER=
